<svg xmlns="http://www.w3.org/2000/svg" width="36" height="36" viewBox="0 0 36 36"><path d="M34.313,9H33.75V5.625C33.75,2.475,26.775,0,18,0S2.25,2.475,2.25,5.625V9H1.688A1.687,1.687,0,0,0,0,10.688v5.625A1.688,1.688,0,0,0,1.688,18H2.25V29.25A2.25,2.25,0,0,0,4.5,31.5v2.25A2.25,2.25,0,0,0,6.75,36H9a2.25,2.25,0,0,0,2.25-2.25V31.5h13.5v2.25A2.25,2.25,0,0,0,27,36h2.25a2.25,2.25,0,0,0,2.25-2.25V31.5h.45a1.775,1.775,0,0,0,1.8-1.8V18h.563A1.688,1.688,0,0,0,36,16.313V10.688A1.687,1.687,0,0,0,34.313,9ZM7.875,28.125a2.25,2.25,0,1,1,2.25-2.25A2.25,2.25,0,0,1,7.875,28.125ZM9,20.25A2.25,2.25,0,0,1,6.75,18V9A2.25,2.25,0,0,1,9,6.75H27A2.25,2.25,0,0,1,29.25,9v9A2.25,2.25,0,0,1,27,20.25Zm19.125,7.875a2.25,2.25,0,1,1,2.25-2.25A2.25,2.25,0,0,1,28.125,28.125Z"/></svg>