<svg xmlns="http://www.w3.org/2000/svg" width="254.198" height="87.333" viewBox="0 0 254.198 87.333">
  <g id="Group_381" data-name="Group 381" transform="translate(-11017.483 -10221)">
    <g id="Group_374" data-name="Group 374">
      <g id="Group_368" data-name="Group 368">
        <path id="Path_612" data-name="Path 612" d="M11249.736,10291.533a.526.526,0,0,1-.526-.526v-69.544a.462.462,0,0,0-.662-.417s-4.809,3.328-10,7.653a97.048,97.048,0,0,0-8.055,7.4s-.69.629-.69,1.1v52.672c0,5.832,1.492,10.343,4.436,13.409s8.795,4.615,15.129,4.615h7.594a.636.636,0,0,0,.638-.637v-15.085a.638.638,0,0,0-.638-.638Z" fill="#fff"/>
      </g>
      <g id="Group_373" data-name="Group 373">
        <g id="Group_371" data-name="Group 371">
          <g id="Group_369" data-name="Group 369">
            <path id="Path_613" data-name="Path 613" d="M11225.334,10239.745a.894.894,0,0,0-.71-.361q-8.9-.04-17.8-.069a.846.846,0,0,0-.821.618q-3.788,13.5-7.788,27.02-2.937,11.489-5.979,22.987-2.895-11.477-5.89-22.964-4.187-13.553-8.45-27.119a.88.88,0,0,0-.833-.617q-4.4,16.383-8.979,32.778,5.811,17.719,11.467,35.421a.856.856,0,0,0,.818.6q11.193-.021,22.385-.056a.889.889,0,0,0,.833-.6c7.641-22.335,15.076-44.629,21.891-66.854A.879.879,0,0,0,11225.334,10239.745Z" fill="#ffde14"/>
          </g>
          <g id="Group_370" data-name="Group 370">
            <path id="Path_614" data-name="Path 614" d="M11177.058,10239.239l-1.256,0h-.006q-8.653-.015-17.307-.019h-.117a.864.864,0,0,0-.842.667q-3.212,13.547-6.479,27.1-2.029,9.026-4.06,18.054-2.43-9.038-4.858-18.076-3.894-13.556-7.73-27.107a.864.864,0,0,0-.831-.629q-8.585.007-17.17.024a.879.879,0,0,0-.841.635q-3.946,13.544-7.823,27.076-2.391,9.016-4.723,18.026-2.065-8.991-4.067-17.977-3.224-13.523-6.261-27.033a.844.844,0,0,0-.831-.662q-9.1.029-18.188.07a.891.891,0,0,0-.7.347.88.88,0,0,0-.161.758c5.754,22.229,12.109,44.518,18.71,66.844a.89.89,0,0,0,.847.638q9.664.032,19.331.054a.856.856,0,0,0,.827-.627q3.921-14.164,8.007-28.342c1.314-4.988,2.64-9.83,3.971-14.82,1.347,4.984,2.7,9.822,4.065,14.81q4.1,14.19,8.239,28.386a.874.874,0,0,0,.836.631q9.857.007,19.713,0a.877.877,0,0,0,.839-.641q4.925-17.758,9.852-35.512l.035.106q4.556-16.395,8.979-32.778Z" fill="#fff"/>
          </g>
        </g>
        <g id="Group_372" data-name="Group 372">
          <path id="Path_615" data-name="Path 615" d="M11179.6,10245.584l-9.815,31.926-1.8-5.483,9.093-32.709a.964.964,0,0,1,.808.684Z" fill="#fdbc2c"/>
        </g>
      </g>
      <path id="Path_616" data-name="Path 616" d="M11071.831,10285.4c-.3-6.978-2.9-14.725-19.49-20.051-.884-.292-1.758-.569-2.608-.84-5.91-1.879-11.642-3.388-11.77-6.925-.12-3.262,3.484-5.118,8.337-5.288,4.17-.154,8.593,1.354,13.845,4.739a1.049,1.049,0,0,0,1.431-.285q3.989-5.682,8.048-11.46a1.085,1.085,0,0,0,.19-.812.983.983,0,0,0-.433-.67,40.419,40.419,0,0,0-24.158-7.1c-16.086.5-27.522,9.045-26.942,22.163.38,9.106,7.874,15.157,20.269,19.363.781.271,1.562.538,2.331.8,6.129,2.083,11.575,4.053,11.713,7.78.131,3.536-2.875,5.687-8.367,5.871-.224.007-.448.011-.676.011-5.105,0-10.331-1.881-16.344-5.956a1.05,1.05,0,0,0-1.461.291q-3.995,5.962-8.067,12.032a1.045,1.045,0,0,0,.223,1.448,45.791,45.791,0,0,0,25.2,7.816c.369,0,.735-.007,1.1-.02C11061.719,10307.782,11072.433,10299.166,11071.831,10285.4Z" fill="#fff"/>
    </g>
    <g id="Group_380" data-name="Group 380">
      <g id="Group_377" data-name="Group 377">
        <g id="Group_376" data-name="Group 376">
          <g id="Group_375" data-name="Group 375">
            <path id="Path_617" data-name="Path 617" d="M11268.984,10296.4l-.557-1.264h-.739v1.264h-.612v-3.342h1.409a1.033,1.033,0,0,1,1.158,1.037.963.963,0,0,1-.612.938l.612,1.366Zm-.5-2.809h-.8v1h.811c.344,0,.542-.179.542-.5A.511.511,0,0,0,11268.485,10293.592Z" fill="#fff"/>
          </g>
        </g>
      </g>
      <g id="Group_379" data-name="Group 379">
        <g id="Group_378" data-name="Group 378">
          <path id="Path_618" data-name="Path 618" d="M11268.251,10298.16a3.431,3.431,0,1,1,3.431-3.43A3.434,3.434,0,0,1,11268.251,10298.16Zm0-6.235a2.8,2.8,0,1,0,2.8,2.806A2.808,2.808,0,0,0,11268.251,10291.925Z" fill="#fff"/>
        </g>
      </g>
    </g>
  </g>
</svg>
